@startuml
'https://plantuml.com/activity-diagram-beta

left to right direction

class MainCommand [[../../../test_runner/src/main/kotlin/ftl/Main.kt]] {
    flank.jar
}

class AuthCommand [[../../../test_runner/src/main/kotlin/ftl/cli/AuthCommand.kt]] {
    auth
}
class FirebaseCommand [[../../../test_runner/src/main/kotlin/ftl/cli/FirebaseCommand.kt]] {
    firebase
}

class LoginCommand [[../../../test_runner/src/main/kotlin/ftl/cli/auth/LoginCommand.kt]] {
    login
}

class CancelCommand [[../../../test_runner/src/main/kotlin/ftl/cli/firebase/CancelCommand.kt]] {
    cancel
}
class RefreshCommand [[../../../test_runner/src/main/kotlin/ftl/cli/firebase/RefreshCommand.kt]] {
    refresh
}
class TestCommand [[../../../test_runner/src/main/kotlin/ftl/cli/firebase/TestCommand.kt]] {
    test
}

class AndroidCommand [[../../../test_runner/src/main/kotlin/ftl/cli/firebase/test/AndroidCommand.kt]] {
    android
}
class IosCommand [[../../../test_runner/src/main/kotlin/ftl/cli/firebase/test/IosCommand.kt]] {
    ios
}
class IPBlocksCommand [[../../../test_runner/src/main/kotlin/ftl/cli/firebase/test/IPBlocksCommand.kt]] {
    ip-blocks
}
class NetworkProfilesCommand [[../../../test_runner/src/main/kotlin/ftl/cli/firebase/test/NetworkProfilesCommand.kt]] {
    network-profiles
}
class ProvidedSoftwareCommand [[../../../test_runner/src/main/kotlin/ftl/cli/firebase/test/ProvidedSoftwareCommand.kt]] {
    provided-software
}


class AndroidDoctorCommand [[../../../test_runner/src/main/kotlin/ftl/cli/firebase/test/android/AndroidDoctorCommand.kt]] {
    doctor
}
class AndroidLocalesCommand [[../../../test_runner/src/main/kotlin/ftl/cli/firebase/test/android/AndroidLocalesCommand.kt]] {
    locales
}
class AndroidModelsCommand [[../../../test_runner/src/main/kotlin/ftl/cli/firebase/test/android/AndroidModelsCommand.kt]] {
    models
}
class AndroidOrientationsCommand [[../../../test_runner/src/main/kotlin/ftl/cli/firebase/test/android/AndroidOrientationsCommand.kt]] {
    screen-orientations
}
class AndroidRunCommand [[../../../test_runner/src/main/kotlin/ftl/cli/firebase/test/android/AndroidRunCommand.kt]] {
    run
}
class AndroidTestEnvironmentCommand [[../../../test_runner/src/main/kotlin/ftl/cli/firebase/test/android/AndroidTestEnvironmentCommand.kt]] {
    test-environment
}
class AndroidVersionsCommand [[../../../test_runner/src/main/kotlin/ftl/cli/firebase/test/android/AndroidVersionsCommand.kt]] {
    versions
}

class AndroidLocalesListCommand [[../../../test_runner/src/main/kotlin/ftl/cli/firebase/test/android/configuration/AndroidLocalesListCommand.kt]] {
    list
}
class AndroidLocalesDescribeCommand [[../../../test_runner/src/main/kotlin/ftl/cli/firebase/test/android/configuration/AndroidLocalesDescribeCommand.kt]] {
    describe
}

class AndroidModelsListCommand [[../../../test_runner/src/main/kotlin/ftl/cli/firebase/test/android/models/AndroidModelsListCommand.kt]] {
    list
}
class AndroidModelDescribeCommand [[../../../test_runner/src/main/kotlin/ftl/cli/firebase/test/android/models/AndroidModelDescribeCommand.kt]] {
    describe
}

class AndroidOrientationsListCommand [[../../../test_runner/src/main/kotlin/ftl/cli/firebase/test/android/orientations/AndroidOrientationsListCommand.kt]] {
    list
}

class AndroidVersionsListCommand [[../../../test_runner/src/main/kotlin/ftl/cli/firebase/test/android/versions/AndroidVersionsListCommand.kt]] {
    list
}
class AndroidVersionsDescribeCommand [[../../../test_runner/src/main/kotlin/ftl/cli/firebase/test/android/versions/AndroidVersionsDescribeCommand.kt]] {
    describe
}


class IosDoctorCommand [[../../../test_runner/src/main/kotlin/ftl/cli/firebase/test/ios/IosDoctorCommand.kt]] {
    doctor
}
class IosLocalesCommand [[../../../test_runner/src/main/kotlin/ftl/cli/firebase/test/ios/IosLocalesCommand.kt]] {
    locales
}
class IosModelsCommand [[../../../test_runner/src/main/kotlin/ftl/cli/firebase/test/ios/IosModelsCommand.kt]] {
    models
}
class IosOrientationsCommand [[../../../test_runner/src/main/kotlin/ftl/cli/firebase/test/ios/IosOrientationsCommand.kt]] {
    screen-orientations
}
class IosRunCommand [[../../../test_runner/src/main/kotlin/ftl/cli/firebase/test/ios/IosRunCommand.kt]] {
    run
}
class IosTestEnvironmentCommand [[../../../test_runner/src/main/kotlin/ftl/cli/firebase/test/ios/IosTestEnvironmentCommand.kt]] {
    test-environment
}
class IosVersionsCommand [[../../../test_runner/src/main/kotlin/ftl/cli/firebase/test/ios/IosVersionsCommand.kt]] {
    versions
}

class IosLocalesListCommand [[../../../test_runner/src/main/kotlin/ftl/cli/firebase/test/ios/configuration/IosLocalesListCommand.kt]] {
    list
}
class IosLocalesDescribeCommand [[../../../test_runner/src/main/kotlin/ftl/cli/firebase/test/ios/configuration/IosLocalesDescribeCommand.kt]] {
    describe
}

class IosModelsListCommand [[../../../test_runner/src/main/kotlin/ftl/cli/firebase/test/ios/models/IosModelsListCommand.kt]] {
    list
}
class IosModelDescribeCommand [[../../../test_runner/src/main/kotlin/ftl/cli/firebase/test/ios/models/IosModelDescribeCommand.kt]] {
    describe
}

class IosOrientationsListCommand [[../../../test_runner/src/main/kotlin/ftl/cli/firebase/test/ios/orientations/IosOrientationsListCommand.kt]] {
    list
}

class IosVersionsListCommand [[../../../test_runner/src/main/kotlin/ftl/cli/firebase/test/ios/versions/IosVersionsListCommand.kt]] {
    list
}
class IosVersionsDescribeCommand [[../../../test_runner/src/main/kotlin/ftl/cli/firebase/test/ios/versions/IosVersionsDescribeCommand.kt]] {
    describe
}

class IPBlocksListCommand [[../../../test_runner/src/main/kotlin/ftl/cli/firebase/test/ipblocks/IPBlocksListCommand.kt]] {
    list
}

class NetworkProfilesDescribeCommand [[../../../test_runner/src/main/kotlin/ftl/cli/firebase/test/networkprofiles/NetworkProfilesDescribeCommand.kt]] {
    describe
}
class NetworkProfilesListCommand [[../../../test_runner/src/main/kotlin/ftl/cli/firebase/test/networkprofiles/NetworkProfilesListCommand.kt]] {
    list
}

class ProvidedSoftwareListCommand [[../../../test_runner/src/main/kotlin/ftl/cli/firebase/test/providedsoftware/ProvidedSoftwareListCommand.kt]] {
    list
}

MainCommand --> RefreshCommand
MainCommand --> CancelCommand
MainCommand --> ProvidedSoftwareCommand
MainCommand --> NetworkProfilesCommand
MainCommand --> IPBlocksCommand
MainCommand --> AuthCommand
MainCommand --> IosCommand
MainCommand --> AndroidCommand
MainCommand --> FirebaseCommand

AuthCommand --> LoginCommand

IPBlocksCommand --> IPBlocksListCommand

IosCommand --> IosRunCommand
IosCommand --> IosDoctorCommand
IosCommand --> IosModelsCommand
IosCommand --> IosVersionsCommand
IosCommand --> IosLocalesCommand
IosCommand --> IosOrientationsCommand
IosCommand --> IosTestEnvironmentCommand

IosModelsCommand --> IosModelsListCommand
IosModelsCommand --> IosModelDescribeCommand

IosVersionsCommand --> IosVersionsListCommand
IosVersionsCommand --> IosVersionsDescribeCommand

IosLocalesCommand --> IosLocalesListCommand
IosLocalesCommand --> IosLocalesDescribeCommand

IosOrientationsCommand --> IosOrientationsListCommand

AndroidCommand --> AndroidRunCommand
AndroidCommand --> AndroidDoctorCommand
AndroidCommand --> AndroidModelsCommand
AndroidCommand --> AndroidVersionsCommand
AndroidCommand --> AndroidLocalesCommand
AndroidCommand --> AndroidOrientationsCommand
AndroidCommand --> AndroidTestEnvironmentCommand

AndroidModelsCommand --> AndroidModelsListCommand
AndroidModelsCommand --> AndroidModelDescribeCommand

AndroidVersionsCommand --> AndroidVersionsListCommand
AndroidVersionsCommand --> AndroidVersionsDescribeCommand

AndroidLocalesCommand --> AndroidLocalesListCommand
AndroidLocalesCommand --> AndroidLocalesDescribeCommand

AndroidOrientationsCommand --> AndroidOrientationsListCommand

FirebaseCommand --> TestCommand
FirebaseCommand --> RefreshCommand
FirebaseCommand --> CancelCommand

TestCommand --> AndroidCommand
TestCommand --> IosCommand
TestCommand --> NetworkProfilesCommand
TestCommand --> ProvidedSoftwareCommand
TestCommand --> IPBlocksCommand

NetworkProfilesCommand --> NetworkProfilesDescribeCommand
NetworkProfilesCommand --> NetworkProfilesListCommand

ProvidedSoftwareCommand --> ProvidedSoftwareListCommand
@enduml
