@startuml
'left to right direction
package "parallel" {

object "Task.Body.invoke()" as Task_Body {
creates
}

class Task<R>
class "Task.Signature" as Task_Signature<R>
interface Type<R>
interface "Type<R>" as Type2
interface ExecuteTask<R>
interface ParallelState

object "using" as usingType {
creates
}
object "using" as usingSignature {
creates
}
object from {
creates
}

object "invoke()" as invokeExecution {
executes
}
object "invoke()" as reduce {
reduces
}

Task_Body "1" ..> ExecuteTask

ExecuteTask <--o "1" usingSignature
usingSignature "1" #--> Task_Signature
usingSignature  "1" ..> Task
usingSignature -right-* usingType

Type <--# "1" usingType
ExecuteTask <--o "1" usingType
usingType "1" ..> Task
usingType *-left- from

Type <--# "1" from
Type <--o "*" from
from "1" ..> Task_Signature

Type2 <--o "*" reduce
Task <. "*" reduce
Task <-# "*" reduce

Task <--# "*" invokeExecution
invokeExecution "1" o--> ParallelState
invokeExecution "*" ..> ParallelState

}
@enduml
